<?xml version="1.0" standalone="no"?>
<!DOCTYPE svg PUBLIC "-//W3C//DTD SVG 20010904//EN"
 "http://www.w3.org/TR/2001/REC-SVG-20010904/DTD/svg10.dtd">
<svg version="1.0" xmlns="http://www.w3.org/2000/svg"
 width="750.000000pt" height="533.000000pt" viewBox="0 0 750.000000 533.000000"
 preserveAspectRatio="xMidYMid meet">

<g transform="translate(0.000000,533.000000) scale(0.100000,-0.100000)"
fill="#000000" stroke="none">
<path d="M1820 4045 c-62 -19 -113 -65 -144 -127 l-26 -52 0 -1237 0 -1238
1711 2 c941 1 1705 5 1698 10 -218 126 -254 153 -264 198 l-7 29 -273 0 c-150
0 -280 3 -289 6 -21 8 -21 30 0 38 9 3 144 6 300 6 280 0 285 0 315 23 56 41
149 23 244 -48 34 -25 79 -49 114 -60 22 -7 23 -5 16 27 -4 18 -12 39 -18 46
-8 10 22 46 128 152 l139 139 -28 30 -28 29 124 6 c67 4 171 8 230 9 l108 2 0
887 c0 604 -3 903 -11 938 -14 64 -60 125 -124 165 l-48 30 -1911 2 c-1616 1
-1918 0 -1956 -12z m1964 -80 c3 -8 -2 -22 -11 -30 -14 -15 -18 -15 -31 -1 -8
8 -12 22 -9 30 8 20 43 21 51 1z m-646 -362 c-3 -17 -24 -18 -252 -21 -145 -1
-254 2 -259 7 -27 27 11 31 259 31 238 0 255 -1 252 -17z m-193 -98 c0 -19 -8
-20 -140 -23 -152 -3 -185 1 -185 22 0 23 16 25 175 23 143 -2 150 -3 150 -22z
m1130 0 c0 -10 -967 -20 -993 -10 -7 3 -10 9 -7 15 9 14 1000 9 1000 -5z m800
5 c7 -12 -2 -12 -30 0 -19 8 -19 9 2 9 12 1 25 -3 28 -9z m-1777 -112 c3 -17
-10 -18 -167 -18 -136 0 -171 3 -171 13 0 8 3 17 7 21 4 3 79 5 167 4 144 -3
161 -5 164 -20z m255 -92 c3 -8 3 -17 0 -20 -8 -8 -418 -8 -426 0 -3 3 -3 12
0 20 8 21 418 21 426 0z m306 1 c18 -23 2 -27 -105 -27 -98 0 -123 7 -109 30
10 16 200 13 214 -3z m-401 -114 c-3 -16 -20 -18 -157 -21 -148 -2 -191 4
-175 29 3 5 79 9 170 9 152 0 165 -1 162 -17z m482 -3 c-10 -19 -21 -20 -189
-20 -137 0 -181 3 -190 13 -6 8 -8 17 -4 20 3 4 93 7 200 7 191 0 194 0 183
-20z m473 13 c4 -3 2 -12 -4 -20 -8 -9 -42 -13 -127 -13 -114 0 -115 0 -97 20
16 18 31 20 120 20 56 0 105 -3 108 -7z m235 -10 c-3 -15 -16 -19 -67 -21 -35
-2 -68 1 -74 7 -20 20 6 31 74 31 62 0 70 -2 67 -17z m427 -3 c0 -13 -28 -15
-195 -15 -178 0 -195 1 -198 18 -3 16 10 17 195 15 168 -3 198 -5 198 -18z
m-1195 -100 c-10 -19 -21 -20 -374 -20 -292 0 -366 3 -375 13 -6 8 -8 17 -4
20 3 4 177 7 385 7 376 0 379 0 368 -20z m878 -37 c46 -67 362 -624 362 -639
0 -10 -7 -26 -17 -36 -15 -17 -41 -18 -394 -18 l-379 0 -16 25 c-9 14 -13 32
-9 45 6 19 2 20 -77 20 -89 0 -115 9 -105 34 5 13 24 16 111 16 97 0 106 2
120 22 9 12 16 32 16 44 0 12 9 28 19 35 11 8 77 113 146 234 70 121 131 226
137 233 19 22 65 14 86 -15z m-1593 -63 c0 -12 -19 -16 -102 -18 -82 -2 -103
0 -103 11 0 25 13 28 110 25 76 -2 95 -6 95 -18z m173 -102 c3 -17 -11 -18
-187 -18 -153 0 -191 3 -191 13 0 8 3 17 7 21 4 3 88 5 187 4 163 -3 181 -5
184 -20z m462 2 c0 -19 -7 -20 -179 -20 -109 0 -182 4 -186 10 -16 25 13 30
186 30 172 0 179 -1 179 -20z m493 6 c12 -30 -16 -36 -166 -36 -132 0 -148 2
-143 16 3 9 6 20 6 25 0 5 65 9 149 9 117 0 150 -3 154 -14z m-580 -103 c4 -3
2 -12 -4 -20 -17 -19 -561 -19 -578 0 -6 8 -8 17 -4 20 8 9 578 9 586 0z m697
-98 c24 -29 0 -35 -145 -35 -145 0 -169 6 -145 35 10 12 41 15 145 15 104 0
135 -3 145 -15z m-822 -12 c-3 -16 -20 -18 -152 -21 -84 -1 -154 2 -159 7 -24
24 9 31 159 31 143 0 155 -1 152 -17z m180 0 c-4 -20 -74 -31 -90 -15 -18 18
3 32 48 32 38 0 45 -3 42 -17z m257 -3 c0 -10 -12 -16 -37 -18 -33 -3 -38 0
-38 18 0 18 5 21 38 18 25 -2 37 -8 37 -18z m302 -96 c3 -9 0 -20 -8 -25 -16
-10 -328 -12 -353 -3 -19 7 -21 30 -3 37 6 3 90 6 185 6 150 1 173 -1 179 -15z
m-564 -9 c2 -10 -305 -20 -331 -10 -7 3 -10 9 -7 15 9 14 334 9 338 -5z m17
-95 c0 -19 -7 -20 -174 -20 -106 0 -177 4 -181 10 -16 25 13 30 181 30 167 0
174 -1 174 -20z m279 7 c16 -20 4 -27 -46 -27 -36 0 -43 3 -43 20 0 17 7 20
39 20 21 0 44 -6 50 -13z m-471 -114 c-3 -16 -20 -18 -152 -21 -84 -1 -154 2
-159 7 -24 24 9 31 159 31 143 0 155 -1 152 -17z m-233 -103 c0 -12 -20 -16
-109 -18 -79 -2 -112 1 -117 10 -15 24 4 29 114 26 92 -2 112 -6 112 -18z
m169 -86 c9 -3 16 -12 16 -19 0 -22 -26 -25 -215 -25 -139 0 -185 3 -194 13
-25 31 9 37 195 37 100 0 189 -3 198 -6z m885 -8 c9 -10 8 -16 -4 -26 -21 -18
-258 -8 -282 11 -14 13 -13 15 13 20 16 4 81 7 145 8 88 1 119 -2 128 -13z
m170 1 c17 -21 -7 -37 -55 -37 -46 0 -71 19 -52 38 16 16 93 15 107 -1z m-681
-14 c3 -10 -30 -13 -142 -13 -132 0 -167 6 -149 24 4 4 70 5 147 4 100 -2 141
-6 144 -15z m-361 -89 c10 -27 -17 -34 -132 -34 -115 0 -142 7 -132 34 5 13
26 16 132 16 106 0 127 -3 132 -16z m425 -1 c10 -9 18 -20 18 -25 0 -12 -367
-10 -375 2 -4 6 -4 17 -1 25 9 23 332 22 358 -2z m1113 -8 c0 -20 -8 -20 -412
-23 l-412 -2 -28 25 -28 25 440 -3 c433 -2 440 -2 440 -22z m-1720 -105 c0
-12 -20 -16 -112 -18 -108 -3 -113 -2 -113 18 0 20 5 21 113 18 92 -2 112 -6
112 -18z m0 -100 c0 -12 -20 -16 -112 -18 -108 -3 -113 -2 -113 18 0 20 5 21
113 18 92 -2 112 -6 112 -18z m500 0 c0 -13 -29 -15 -194 -18 -111 -1 -199 2
-204 7 -26 26 9 31 201 29 167 -3 197 -5 197 -18z m335 0 l25 -20 -142 0 c-84
0 -144 4 -148 10 -15 24 12 30 123 30 101 0 120 -3 142 -20z m-571 -89 c8 -5
11 -16 8 -25 -6 -14 -30 -16 -177 -16 -147 0 -171 2 -177 16 -11 28 19 34 177
34 85 0 161 -4 169 -9z m559 -18 c-3 -16 -23 -18 -222 -21 -212 -2 -256 3
-240 29 3 5 109 9 235 9 214 0 230 -1 227 -17z m247 -3 l50 -18 -101 -1 c-74
-1 -105 3 -113 12 -6 8 -8 17 -4 20 13 14 119 5 168 -13z m-230 -95 c0 -20 -8
-20 -440 -23 -242 -1 -450 0 -462 3 -25 6 -31 30 -10 38 6 3 215 5 462 4 443
-2 450 -2 450 -22z"/>
<path d="M4488 3043 c-31 -37 -358 -614 -358 -633 0 -20 8 -20 380 -20 377 0
380 0 380 21 0 19 -326 595 -358 632 -8 9 -18 17 -22 17 -4 0 -14 -8 -22 -17z
m209 -319 c95 -164 173 -302 173 -306 0 -5 -162 -8 -361 -8 -317 0 -360 2
-355 15 3 8 65 117 137 243 73 125 150 258 171 295 22 38 45 66 51 64 6 -2 89
-138 184 -303z"/>
<path d="M4476 2894 c-9 -8 -16 -18 -16 -22 0 -4 7 -72 15 -152 8 -80 15 -148
15 -152 0 -5 9 -8 19 -8 16 0 21 9 25 43 6 41 26 253 26 268 0 14 -32 39 -50
39 -10 0 -26 -7 -34 -16z"/>
<path d="M4480 2525 c-26 -32 13 -81 48 -59 34 22 22 74 -18 74 -10 0 -23 -7
-30 -15z"/>
<path d="M5386 1751 c-92 -93 -134 -141 -126 -146 8 -5 61 41 151 131 122 121
147 154 121 154 -4 0 -70 -62 -146 -139z"/>
<path d="M5485 1680 c-71 -71 -127 -131 -125 -133 21 -17 109 -29 177 -23 107
10 110 11 143 69 45 78 41 112 -18 170 l-47 47 -130 -130z"/>
<path d="M6562 1175 c-12 -9 -21 -23 -20 -30 3 -16 -401 -427 -413 -419 -8 4
-16 -28 -21 -87 -3 -22 43 -66 342 -332 l345 -307 353 0 352 0 0 235 0 234
-440 358 c-242 197 -448 359 -458 361 -9 1 -27 -5 -40 -13z m-364 -534 c8 -4
12 -19 10 -32 -2 -18 -9 -24 -28 -24 -28 0 -39 27 -20 50 14 17 20 18 38 6z
m62 -66 c19 -23 8 -50 -20 -50 -16 0 -26 6 -28 18 -4 18 14 47 28 47 4 0 13
-7 20 -15z"/>
</g>
</svg>
